<?xml version="1.0" encoding="UTF-8"?> <!-- Generator: Adobe Illustrator 25.0.1, SVG Export Plug-In . SVG Version: 6.00 Build 0) --> <svg xmlns="http://www.w3.org/2000/svg" xmlns:xlink="http://www.w3.org/1999/xlink" version="1.1" x="0px" y="0px" viewBox="0 0 634.7 134.1" style="enable-background:new 0 0 634.7 134.1;" xml:space="preserve"> <style type="text/css"> .st0{fill:#002D5B;} .st1{fill:url(#SVGID_1_);} .st2{fill:#004F9D;} .st3{fill:#FFD600;} .st4{fill:#FFFFFF;} .st5{fill:url(#SVGID_2_);} .st6{fill:url(#SVGID_3_);} .st7{fill:url(#SVGID_4_);} .st8{fill:url(#SVGID_5_);} .st9{fill:url(#SVGID_6_);} .st10{fill:url(#SVGID_7_);} .st11{fill:url(#SVGID_8_);} .st12{fill:url(#SVGID_9_);} .st13{fill:url(#SVGID_10_);} .st14{fill:url(#SVGID_11_);} .st15{fill:url(#SVGID_12_);} .st16{fill:#C7C8CA;} .st17{fill:url(#SVGID_13_);} .st18{fill:url(#SVGID_14_);} .st19{fill:url(#SVGID_15_);} .st20{fill:url(#SVGID_16_);} .st21{fill:url(#SVGID_17_);} .st22{fill:url(#SVGID_18_);} .st23{fill:url(#SVGID_19_);} .st24{fill:url(#SVGID_20_);} .st25{fill:url(#SVGID_21_);} .st26{fill:none;stroke:#FFD600;stroke-miterlimit:10;} .st27{display:none;} </style> <g id="Layer_1"> <g> <g> <g> <path class="st4" d="M352.6,24.4v21.7h-5.7V24.4h-7.4v-4.7H360v4.7H352.6z"></path> <path class="st4" d="M384.9,46.1v-11H374v11h-5.7V19.7h5.7v10.7h10.9V19.7h5.7v26.4H384.9z"></path> <path class="st4" d="M401.5,46.1V19.7h17v4.7h-11.3v6h9.6V35h-9.6v6.4H419v4.7H401.5z"></path> <g> <path class="st4" d="M138.8,65.7V75h13.1v6.9h-13.1v34.9h-8.4V58.6h23.9v7H138.8z"></path> <path class="st4" d="M167.7,97.8V58.6h8.4v39.2H167.7z"></path> <path class="st4" d="M205.9,58.6c9.1,0,15.1,4.5,15.1,12.9c0,5.7-3.2,9.5-7.4,11.1l8.2,15.1h-8.9L206,84.1h-5.7v13.7h-8.2V58.6 H205.9z M200.4,65.7v11.7h6c3.7,0,6.3-1.8,6.3-5.8c0-3.9-2.7-5.9-6.5-5.9H200.4z"></path> <path class="st4" d="M233.5,96.3v-8c2.7,1.4,6.3,2.6,9.8,2.8c1.3,0.1,2.4,0,3.5-0.2c3-0.4,4.7-1.6,4.7-3.5c0-2.6-2.3-4-7.7-5.9 c-6.9-2.5-10.9-5.4-10.9-12.2c0-7,5.8-11.4,14.2-11.4c3.9,0,7.8,0.9,10.2,2v7.7c-2.3-1.4-6-2.4-9.6-2.4c-4,0-6.6,1.6-6.6,4.1 c0,2.3,2.1,3.9,7.5,5.9c6.9,2.7,11.1,5.5,11.1,12.1c0,7.1-5.3,11.3-14.6,11.3C240.7,98.6,236.3,97.6,233.5,96.3z"></path> <path class="st4" d="M288.6,65.7v32.1h-8.4V65.7h-10.9v-7h30.3v7H288.6z"></path> <path class="st4" d="M343.7,58h0.3l19,39.8h-8.8l-3.2-6.9h-14.6l-3,6.9h-8.8L343.7,58z M348.7,85c-1.8-4.1-3.5-8.2-4.7-11.6 c-1.1,2.7-3.2,7.9-4.8,11.6H348.7z"></path> <path class="st4" d="M402.7,68.3c-2.3-1.2-6-2.7-10.8-2.7c-7.9,0-12.9,5.7-12.9,12.7c0,7,4.9,12.7,12.7,12.7 c5.1,0,8.9-1.5,11.4-2.7V96c-2,1.1-6.5,2.6-12,2.6c-11.8,0-20.4-8.9-20.4-20.3c0-11.4,8.6-20.3,20.7-20.3 c5.5,0,9.4,1.6,11.4,2.7V68.3z"></path> <path class="st4" d="M430.9,58h0.3l19,39.8h-8.8l-3.2-6.9h-14.6l-3,6.9h-8.8L430.9,58z M435.9,85c-1.8-4.1-3.5-8.2-4.7-11.6 c-1.1,2.7-3.2,7.9-4.8,11.6H435.9z"></path> <path class="st4" d="M461.9,97.8V58.6h12.5c13.3,0,21.8,8.1,21.8,19.6s-8.4,19.6-21.6,19.6H461.9z M470.3,65.7v25.1h4.1 c8.4,0,13.3-5.4,13.3-12.6c0-7.1-4.9-12.6-13.4-12.6H470.3z"></path> <path class="st4" d="M509.8,97.8V58.6H535v7h-16.8v8.9h14.2v6.7h-14.2v9.5h17.6v7H509.8z"></path> <path class="st4" d="M559.5,77.6l-2.1-1.8v22h-8V58h0.2l18.7,18.8L586.9,58h0.2v39.8h-8v-22l-2.1,1.8c-2.9,3.2-5.8,6.3-8.8,9.4 C565.3,83.9,562.4,80.7,559.5,77.6z"></path> <path class="st4" d="M607,58.6l9,16l9-16h9.5l-14.2,24v34.2h-8.4V82.6l-14.2-24H607z"></path> </g> </g> <rect x="435.9" y="39.7" class="st4" width="198.6" height="3.6"></rect> <rect x="130.5" y="39.7" class="st4" width="200.1" height="3.6"></rect> </g> <polygon class="st4" points="587,113.1 466.5,113.1 466.5,113.1 167.7,113.1 167.7,116.8 474.3,116.8 474.3,116.8 587,116.8 "></polygon> </g> <g> <g> <path class="st4" d="M80.5,75v44.7l0.2-0.1c11.5-6,18.7-17.9,18.7-30.8V75H80.5z"></path> <path class="st4" d="M7.3,88.7c0,1.9,0.2,3.9,0.5,5.8c1.8,10.6,8.4,20,18.2,25l27.4,14.3l17.8-9.3V75H7.3V88.7z"></path> </g> <path class="st4" d="M55.2,17.7L55.2,17.7c4.1-0.9,7.2-4.7,6.9-9.2C61.9,4,58,0.3,53.4,0.2c-4.9-0.1-9,3.9-9,8.8 c0,4.2,3,7.8,6.9,8.6h0c-1.6,6-3.8,11.3-6.2,15.8c-8.6,15.3-21.5,19.3-34.3-2.3l-0.2,0.1c2.6-1.4,4.2-4.3,3.6-7.6 c-0.5-2.7-2.7-5-5.4-5.6c-4.6-1-8.6,2.5-8.6,6.9c0,3.9,3.2,7.1,7.1,7.1v33.5h63.8V44.9C64.2,41.4,58.7,31.1,55.2,17.7z M99.3,17.9 c-3.9,0-7,3.2-7,7.1c0,2.7,1.5,5,3.7,6.2l-0.3-0.1c-5.4,8.2-10.5,12.7-15.2,14.4v20.2h18.9V32.1c3.9,0,7-3.2,7-7.1 C106.4,21.2,103.1,17.9,99.3,17.9z M97,31.7L97,31.7C96.9,31.6,97,31.6,97,31.7L97,31.7z"></path> </g> </g> <g id="nyt_x5F_exporter_x5F_info" class="st27"> </g> </svg> 