<?xml version="1.0" encoding="UTF-8"?> <!-- Generator: Adobe Illustrator 25.0.1, SVG Export Plug-In . SVG Version: 6.00 Build 0) --> <svg xmlns="http://www.w3.org/2000/svg" xmlns:xlink="http://www.w3.org/1999/xlink" version="1.1" x="0px" y="0px" viewBox="0 0 504 262.9" style="enable-background:new 0 0 504 262.9;" xml:space="preserve"> <style type="text/css"> .st0{fill:#002D5B;} .st1{fill:url(#SVGID_1_);} .st2{fill:#004F9D;} .st3{fill:#FFD600;} .st4{fill:#FFFFFF;} .st5{fill:url(#SVGID_2_);} .st6{fill:url(#SVGID_3_);} .st7{fill:url(#SVGID_4_);} .st8{fill:url(#SVGID_5_);} .st9{fill:url(#SVGID_6_);} .st10{fill:url(#SVGID_7_);} .st11{fill:url(#SVGID_8_);} .st12{fill:url(#SVGID_9_);} .st13{fill:url(#SVGID_10_);} .st14{fill:url(#SVGID_11_);} .st15{fill:url(#SVGID_12_);} .st16{fill:#C7C8CA;} .st17{fill:url(#SVGID_13_);} .st18{fill:url(#SVGID_14_);} .st19{fill:url(#SVGID_15_);} .st20{fill:url(#SVGID_16_);} .st21{fill:url(#SVGID_17_);} .st22{fill:url(#SVGID_18_);} .st23{fill:url(#SVGID_19_);} .st24{fill:url(#SVGID_20_);} .st25{fill:url(#SVGID_21_);} .st26{fill:none;stroke:#FFD600;stroke-miterlimit:10;} .st27{display:none;} </style> <g id="Layer_1"> <g> <g> <g> <path class="st4" d="M222.1,4.7v21.7h-5.7V4.7h-7.4V0h20.4v4.7H222.1z"></path> <path class="st4" d="M254.5,26.4v-11h-10.9v11h-5.7V0h5.7v10.7h10.9V0h5.7v26.4H254.5z"></path> <path class="st4" d="M271,26.4V0h17v4.7h-11.3v6h9.6v4.6h-9.6v6.4h11.9v4.7H271z"></path> <g> <path class="st4" d="M8.4,46v9.4h13.1v6.9H8.4v34.9H0V38.9h23.9v7H8.4z"></path> <path class="st4" d="M37.2,78.1V38.9h8.4v39.2H37.2z"></path> <path class="st4" d="M75.4,38.9c9.1,0,15.1,4.5,15.1,12.9c0,5.7-3.2,9.5-7.4,11.1l8.2,15.1h-8.9l-6.9-13.7h-5.7v13.7h-8.2V38.9 H75.4z M69.9,46v11.7h6c3.7,0,6.3-1.8,6.3-5.8c0-3.9-2.7-5.9-6.5-5.9H69.9z"></path> <path class="st4" d="M103,76.6v-8c2.7,1.4,6.3,2.6,9.8,2.8c1.3,0.1,2.4,0,3.5-0.2c3-0.4,4.7-1.6,4.7-3.5c0-2.6-2.3-4-7.7-5.9 c-6.9-2.5-10.9-5.4-10.9-12.2c0-7,5.8-11.4,14.2-11.4c3.9,0,7.8,0.9,10.2,2v7.7c-2.3-1.4-6-2.4-9.6-2.4c-4,0-6.6,1.6-6.6,4.1 c0,2.3,2.1,3.9,7.5,5.9c6.9,2.7,11.1,5.5,11.1,12.1c0,7.1-5.3,11.3-14.6,11.3C110.2,78.9,105.8,77.9,103,76.6z"></path> <path class="st4" d="M158.2,46v32.1h-8.4V46h-10.9v-7h30.3v7H158.2z"></path> <path class="st4" d="M213.3,38.3h0.3l19,39.8h-8.8l-3.2-6.9h-14.6l-3,6.9h-8.8L213.3,38.3z M218.2,65.3 c-1.8-4.1-3.5-8.2-4.7-11.6c-1.1,2.7-3.2,7.9-4.8,11.6H218.2z"></path> <path class="st4" d="M272.2,48.6c-2.3-1.2-6-2.7-10.8-2.7c-7.9,0-12.9,5.7-12.9,12.7c0,7,4.9,12.7,12.7,12.7 c5.1,0,8.9-1.5,11.4-2.7v7.8c-2,1.1-6.5,2.6-12,2.6c-11.8,0-20.4-8.9-20.4-20.3c0-11.4,8.6-20.3,20.7-20.3 c5.5,0,9.4,1.6,11.4,2.7V48.6z"></path> <path class="st4" d="M300.5,38.3h0.3l19,39.8h-8.8l-3.2-6.9h-14.6l-3,6.9h-8.8L300.5,38.3z M305.4,65.3 c-1.8-4.1-3.5-8.2-4.7-11.6c-1.1,2.7-3.2,7.9-4.8,11.6H305.4z"></path> <path class="st4" d="M331.4,78.1V38.9h12.5c13.3,0,21.8,8.1,21.8,19.6s-8.4,19.6-21.6,19.6H331.4z M339.8,46v25.1h4.1 c8.4,0,13.3-5.4,13.3-12.6c0-7.1-4.9-12.6-13.4-12.6H339.8z"></path> <path class="st4" d="M379.3,78.1V38.9h25.2v7h-16.8v8.9H402v6.7h-14.2v9.5h17.6v7H379.3z"></path> <path class="st4" d="M429,57.9l-2.1-1.8v22h-8V38.3h0.2l18.7,18.8l18.7-18.8h0.2v39.8h-8v-22l-2.1,1.8 c-2.9,3.2-5.8,6.3-8.8,9.4C434.8,64.2,431.9,61,429,57.9z"></path> <path class="st4" d="M476.6,38.9l9,16l9-16h9.5l-14.2,24v34.2h-8.4V62.9l-14.2-24H476.6z"></path> </g> </g> <rect x="305.4" y="20" class="st4" width="198.6" height="3.6"></rect> <rect y="20" class="st4" width="200.1" height="3.6"></rect> <rect x="336" y="93.4" class="st4" width="120.6" height="3.6"></rect> <rect x="37.2" y="93.4" class="st4" width="130.3" height="3.6"></rect> </g> <g> <g> <path class="st4" d="M287.4,186.2v58.2l0.3-0.2c15-7.8,24.3-23.3,24.3-40.2v-17.9H287.4z"></path> <path class="st4" d="M192,204.1c0,2.5,0.2,5,0.7,7.5c2.3,13.9,11,26,23.7,32.7l35.7,18.6l23.2-12.1v-64.6H192V204.1z"></path> </g> <path class="st4" d="M254.5,111.5L254.5,111.5c5.4-1.2,9.4-6.1,9-12c-0.4-5.9-5.4-10.7-11.4-10.8c-6.4-0.1-11.7,5.1-11.7,11.5 c0,5.5,3.9,10.1,9.1,11.3h-0.1c-2.1,7.8-4.9,14.8-8.1,20.6c-11.2,19.9-28,25.1-44.7-3.1l-0.3,0.1c3.4-1.8,5.5-5.6,4.7-9.9 c-0.7-3.6-3.5-6.5-7-7.2c-6-1.3-11.3,3.2-11.3,9c0,5.1,4.1,9.2,9.2,9.2V174h83.2v-27C266.1,142.4,259,128.9,254.5,111.5z M311.9,111.8c-5.1,0-9.2,4.2-9.2,9.2c0,3.5,2,6.5,4.8,8.1l-0.4-0.2c-7,10.7-13.7,16.6-19.8,18.8V174h24.6v-43.7 c5,0,9.1-4.2,9.1-9.2C321.2,116,316.9,111.8,311.9,111.8z M308.9,129.7L308.9,129.7C308.9,129.7,308.9,129.7,308.9,129.7 L308.9,129.7z"></path> </g> </g> </g> <g id="nyt_x5F_exporter_x5F_info" class="st27"> </g> </svg> 